<?xml version="1.0" standalone="no"?>
<!DOCTYPE svg PUBLIC "-//W3C//DTD SVG 20010904//EN"
 "http://www.w3.org/TR/2001/REC-SVG-20010904/DTD/svg10.dtd">
<svg version="1.0" xmlns="http://www.w3.org/2000/svg"
 width="512.000000pt" height="512.000000pt" viewBox="0 0 512.000000 512.000000"
 preserveAspectRatio="xMidYMid meet">
<metadata>
Created by potrace 1.11, written by Peter Selinger 2001-2013
</metadata>
<g transform="translate(0.000000,512.000000) scale(0.100000,-0.100000)"
fill="#000000" stroke="none">
<path d="M2408 4795 c-2 -1 -34 -5 -73 -9 -38 -3 -81 -8 -95 -11 -14 -2 -50
-9 -80 -14 -67 -11 -109 -20 -132 -27 -9 -3 -25 -6 -35 -8 -122 -24 -402 -138
-558 -228 -486 -280 -869 -769 -1024 -1309 -29 -99 -35 -125 -47 -194 -9 -50
-13 -69 -18 -95 -6 -24 -20 -169 -20 -200 0 -8 -5 -18 -11 -22 -7 -5 -6 -8 1
-8 12 0 11 -41 -1 -59 -3 -6 -2 -11 3 -11 6 0 7 -14 2 -35 -4 -20 -4 -38 1
-41 5 -3 5 -13 -1 -23 -5 -10 -6 -21 -3 -25 4 -3 8 -32 9 -64 3 -69 11 -136
25 -220 6 -34 8 -69 5 -78 -3 -8 -2 -12 4 -9 6 3 10 -2 11 -12 1 -18 2 -27 14
-73 4 -14 7 -35 8 -47 1 -13 5 -23 10 -23 5 0 7 -9 4 -20 -3 -12 -1 -18 5 -14
7 5 9 -2 6 -19 -3 -15 -1 -24 3 -21 8 5 13 -13 12 -43 -1 -7 4 -13 9 -13 6 0
8 -7 4 -15 -3 -8 -1 -15 4 -15 6 0 10 -6 10 -12 0 -7 7 -26 16 -43 8 -16 13
-38 11 -47 -3 -10 -1 -15 4 -12 9 5 33 -42 41 -77 2 -8 7 -17 11 -20 4 -3 9
-15 10 -27 0 -11 4 -19 8 -16 7 4 19 -18 25 -43 1 -7 9 -20 18 -29 9 -8 14
-19 11 -24 -3 -5 0 -10 6 -12 7 -2 13 -15 14 -29 1 -13 8 -24 16 -24 8 -1 13
-6 12 -13 -2 -7 2 -12 8 -12 6 0 9 -7 5 -15 -3 -8 0 -14 7 -12 7 1 11 -6 11
-15 -1 -10 4 -18 11 -18 7 0 16 -8 20 -17 3 -10 6 -18 5 -18 -1 0 17 -20 40
-44 25 -28 38 -51 35 -60 -3 -9 -3 -12 1 -8 9 9 44 -22 44 -40 0 -7 7 -13 15
-13 14 0 19 -12 16 -32 0 -5 3 -7 8 -5 5 1 52 -41 104 -93 116 -115 137 -134
160 -143 9 -3 17 -14 17 -22 0 -9 4 -14 9 -11 10 7 53 -28 45 -37 -3 -3 3 -4
13 -3 13 1 18 -6 17 -26 -1 -15 2 -25 7 -22 4 2 6 11 2 19 -3 8 0 15 6 15 6 0
11 -4 11 -10 0 -5 5 -10 10 -10 23 0 68 -43 65 -62 -2 -10 0 -16 6 -13 5 4 7
11 4 16 -4 5 1 9 10 9 10 0 15 -6 12 -13 -3 -8 3 -14 16 -14 11 -1 23 -7 27
-13 4 -7 11 -12 16 -13 5 -1 8 -5 7 -9 -2 -4 6 -5 17 -3 11 2 20 0 20 -4 0 -5
9 -11 21 -14 14 -4 18 -10 13 -19 -6 -11 -5 -11 8 0 12 10 18 9 28 -3 7 -8 27
-19 44 -24 17 -4 30 -13 29 -19 -1 -5 5 -9 15 -8 9 2 48 -10 86 -26 38 -15 75
-28 82 -28 12 0 18 -12 16 -32 -1 -3 6 -12 15 -20 14 -11 16 -11 8 2 -21 34
-13 38 39 21 28 -9 52 -19 54 -22 2 -4 12 -5 22 -2 18 5 25 -5 21 -30 -1 -5 3
-6 9 -2 6 3 8 11 5 16 -4 5 -1 9 4 9 6 0 11 -4 11 -9 0 -4 11 -7 25 -5 14 1
32 -4 39 -12 10 -10 16 -10 18 -2 3 8 13 7 36 -5 18 -8 30 -12 28 -8 -6 10 25
8 42 -3 6 -4 16 -5 21 -1 5 3 12 1 15 -4 3 -5 16 -7 28 -3 18 4 20 2 15 -14
-6 -16 -5 -17 5 -4 23 27 119 5 101 -23 -3 -6 -1 -7 6 -3 9 6 9 11 1 21 -9 10
2 12 54 10 36 -2 69 -5 73 -8 5 -3 26 -2 46 2 20 5 39 6 42 3 11 -11 35 -10
35 1 0 7 5 5 10 -3 5 -8 10 -10 10 -5 0 6 26 11 58 12 31 2 82 5 112 8 30 4
67 7 83 8 15 1 27 5 27 9 0 5 3 7 8 6 4 -1 33 4 64 11 31 7 66 13 77 14 12 1
21 5 21 10 0 4 4 6 9 3 5 -3 27 1 50 9 23 8 49 11 58 8 10 -4 14 -2 10 4 -8
13 39 27 55 17 7 -4 8 -3 4 4 -6 11 5 15 30 11 4 0 10 3 13 8 7 9 63 32 99 40
12 3 22 10 22 15 0 6 7 8 15 4 8 -3 15 -2 15 3 0 9 54 34 66 31 4 -1 10 2 13
7 3 5 28 21 55 36 40 23 52 25 65 15 14 -11 14 -11 4 2 -10 13 -8 18 7 28 14
9 20 8 23 -1 3 -7 6 -4 6 6 1 9 6 17 11 17 6 0 21 9 33 20 12 11 27 18 34 16
7 -3 15 0 19 6 5 7 2 8 -7 3 -12 -8 -12 -6 0 8 7 9 18 17 23 17 9 0 31 16 86
61 7 5 17 7 22 4 6 -4 7 1 3 12 -3 10 -3 15 2 11 4 -4 16 3 27 15 11 12 16 16
12 8 -5 -9 -3 -12 4 -7 7 4 12 14 12 22 0 8 4 14 9 14 5 0 29 21 54 46 29 29
50 43 58 38 7 -4 10 -3 5 4 -3 6 20 38 53 72 40 43 60 58 65 49 4 -11 5 -11 5
1 -2 33 2 42 15 37 10 -4 13 -1 10 8 -3 7 3 22 13 32 26 27 103 130 110 149 3
8 11 13 18 10 8 -3 11 2 8 13 -2 10 3 23 11 30 9 8 16 19 16 26 0 7 10 20 23
29 12 9 17 14 10 11 -8 -3 -6 5 3 25 9 16 19 30 24 30 5 0 7 7 4 15 -4 8 1 17
10 21 9 3 13 10 10 15 -3 5 0 9 5 9 6 0 10 3 9 8 -4 16 14 52 24 46 7 -4 8 -2
4 4 -7 11 32 104 46 110 5 2 6 8 3 13 -3 4 1 22 10 39 8 16 13 30 10 30 -3 0
1 13 10 30 9 16 13 30 9 30 -4 0 -2 6 4 13 5 6 16 38 23 69 7 31 16 55 19 53
3 -2 5 9 6 23 1 23 8 66 14 82 2 3 2 8 1 13 0 4 4 7 9 7 6 0 10 5 10 11 0 5
-4 8 -9 5 -4 -3 -6 6 -3 19 2 14 7 23 11 21 4 -3 5 11 3 30 -3 22 0 34 8 34
10 0 10 3 0 15 -7 8 -9 15 -4 15 5 0 10 12 10 28 6 118 8 142 15 153 4 7 3 23
-2 36 -5 15 -5 23 2 23 6 0 7 6 1 16 -5 9 -6 32 -2 50 4 18 5 36 2 39 -10 9
-9 45 0 45 5 0 6 6 1 13 -4 6 -8 23 -9 37 -4 83 -18 188 -35 275 -11 55 -22
111 -25 125 -30 155 -180 511 -265 632 -11 14 -19 29 -19 32 0 4 -4 12 -10 19
-5 7 -37 50 -71 97 -302 417 -752 722 -1254 849 -81 20 -91 22 -193 40 -116
20 -161 24 -334 26 -97 2 -178 2 -180 0z"/>
<path d="M576 1438 c3 -5 10 -6 15 -3 13 9 11 12 -6 12 -8 0 -12 -4 -9 -9z"/>
<path d="M4313 1145 c0 -8 4 -12 9 -9 5 3 6 10 3 15 -9 13 -12 11 -12 -6z"/>
<path d="M810 1120 c0 -5 5 -10 11 -10 5 0 7 5 4 10 -3 6 -8 10 -11 10 -2 0
-4 -4 -4 -10z"/>
<path d="M4213 1025 c0 -8 4 -12 9 -9 5 3 6 10 3 15 -9 13 -12 11 -12 -6z"/>
<path d="M4055 871 c-3 -5 -2 -12 3 -15 5 -3 9 1 9 9 0 17 -3 19 -12 6z"/>
<path d="M1180 766 c0 -2 8 -10 18 -17 15 -13 16 -12 3 4 -13 16 -21 21 -21
13z"/>
<path d="M3850 699 c0 -5 5 -7 10 -4 6 3 10 8 10 11 0 2 -4 4 -10 4 -5 0 -10
-5 -10 -11z"/>
<path d="M1293 685 c0 -7 6 -11 14 -8 7 3 13 6 13 8 0 2 -6 5 -13 8 -8 3 -14
-1 -14 -8z"/>
<path d="M3650 579 c0 -5 5 -7 10 -4 6 3 10 8 10 11 0 2 -4 4 -10 4 -5 0 -10
-5 -10 -11z"/>
<path d="M3535 529 c-4 -6 -5 -12 -2 -15 2 -3 7 2 10 11 7 17 1 20 -8 4z"/>
<path d="M1615 480 c-3 -5 -1 -10 4 -10 6 0 11 5 11 10 0 6 -2 10 -4 10 -3 0
-8 -4 -11 -10z"/>
<path d="M3450 460 c0 -5 5 -10 11 -10 5 0 7 5 4 10 -3 6 -8 10 -11 10 -2 0
-4 -4 -4 -10z"/>
<path d="M1770 438 c0 -6 3 -8 7 -5 3 4 13 1 22 -6 14 -11 14 -10 2 6 -15 20
-31 22 -31 5z"/>
<path d="M3335 431 c-3 -5 -2 -12 3 -15 5 -3 9 1 9 9 0 17 -3 19 -12 6z"/>
<path d="M3273 415 c0 -8 4 -12 9 -9 5 3 6 10 3 15 -9 13 -12 11 -12 -6z"/>
<path d="M2130 341 c0 -6 4 -13 10 -16 6 -3 7 1 4 9 -7 18 -14 21 -14 7z"/>
<path d="M2980 340 c-9 -6 -10 -10 -3 -10 6 0 15 5 18 10 8 12 4 12 -15 0z"/>
<path d="M2900 320 c-9 -6 -10 -10 -3 -10 6 0 15 5 18 10 8 12 4 12 -15 0z"/>
<path d="M2431 307 c-8 -10 -7 -14 2 -14 8 0 14 6 14 14 0 7 -1 13 -2 13 -2 0
-8 -6 -14 -13z"/>
<path d="M2590 310 c-9 -6 -10 -10 -3 -10 6 0 15 5 18 10 8 12 4 12 -15 0z"/>
<path d="M2550 281 c0 -6 4 -13 10 -16 6 -3 7 1 4 9 -7 18 -14 21 -14 7z"/>
</g>
</svg>
